# xmcd CD database file
#
# Track frame offsets:
#	150
#	29443
#	56393
#	78933
#	101092
#	122531
#	150308
#	170315
#	192912
#	216906
#	239352
#	266034
#	288445
#
# Disc length: 4187 seconds
#
# Revision: 0
# Processed by: cddbd v1.5.2PL0 Copyright (c) Steve Scherf et al.
# Submitted via: CDex 1.70beta2
#
DISCID=ac10590d
DTITLE=Los van van - Arrasando
DYEAR=2008
DGENRE=Salsa
TTITLE0=01 - Arrasando
TTITLE1=02 - Si no te quieres tu
TTITLE2=03 - Tu a lo tuyo y a lo mio
TTITLE3=04 - Me trajo dos
TTITLE4=05 - Que no te de por eso
TTITLE5=06 - La rumba no
TTITLE6=07 - Este amor se muoere
TTITLE7=08 - Me mantengo
TTITLE8=09 - Dame la luz
TTITLE9=10 - Mi songo
TTITLE10=11 - Un tumbao pa los dos
TTITLE11=12 - Olaya
TTITLE12=13 - El travesti
EXTD=YEAR: 2008
EXTT0=
EXTT1=
EXTT2=
EXTT3=
EXTT4=
EXTT5=
EXTT6=
EXTT7=
EXTT8=
EXTT9=
EXTT10=
EXTT11=
EXTT12=
PLAYORDER=
